<?xml version="1.0" encoding="utf-8"?>
<!-- Generator: Adobe Illustrator 18.1.1, SVG Export Plug-In . SVG Version: 6.00 Build 0)  -->
<svg version="1.1" id="nutrition" xmlns="http://www.w3.org/2000/svg" xmlns:xlink="http://www.w3.org/1999/xlink" x="0px" y="0px"
	 viewBox="0 0 612 792" enable-background="new 0 0 612 792" xml:space="preserve">
<g>
	<circle fill="#DE7126" cx="306" cy="396" r="306"/>
</g>
<ellipse fill="#FFFFFF" cx="208" cy="332.5" rx="45.5" ry="43.5"/>
<ellipse fill="#FFFFFF" cx="411.5" cy="332.5" rx="45.5" ry="43.5"/>
<path fill="#FFFFFF" d="M309,506L309,506c5.8,0,10.5-4.7,10.5-10.5v-51c0-5.8-4.7-10.5-10.5-10.5l0,0c-5.8,0-10.5,4.7-10.5,10.5v51
	C298.5,501.3,303.2,506,309,506z"/>
<ellipse fill="#DE7126" cx="318.3" cy="576" rx="93.3" ry="29"/>
<ellipse fill="#DE7126" cx="316.5" cy="580" rx="125.5" ry="25"/>
<ellipse fill="#DE7126" cx="318" cy="577.5" rx="1.5" ry="22.5"/>
<ellipse fill="#FFFFFF" stroke="#000000" stroke-miterlimit="10" cx="318.5" cy="574.6" rx="101.5" ry="19.6"/>
</svg>
