<?xml version="1.0" encoding="utf-8"?>
<!-- Generator: Adobe Illustrator 18.1.1, SVG Export Plug-In . SVG Version: 6.00 Build 0)  -->
<svg version="1.1" id="exoticpets" xmlns="http://www.w3.org/2000/svg" xmlns:xlink="http://www.w3.org/1999/xlink" x="0px" y="0px"
	 viewBox="0 0 612 792" enable-background="new 0 0 612 792" xml:space="preserve">
<image overflow="visible" enable-background="new    " width="225" height="225" xlink:href="D8B5C48C.jpg"  transform="matrix(0.9999 0 0 0.9999 193 283)">
</image>
<g>
	<circle fill="#F6AA34" cx="306" cy="396" r="306"/>
</g>
<polygon fill="#FFFFFF" points="226,345 267.1,391.8 247.1,450.8 186,463 144.9,416.2 164.9,357.2 "/>
<polygon fill="#FFFFFF" points="443,339 485.9,378.8 472.9,435.8 417,453 374.1,413.2 387.1,356.2 "/>
<g>
	<line fill="none" x1="219.8" y1="254.3" x2="302.8" y2="737.3"/>
	
		<polyline opacity="3.000000e-002" fill="none" stroke="#FFFFFF" stroke-width="2" stroke-miterlimit="10" enable-background="new    " points="
		219.8,254.3 10.9,33.7 219.8,254.3 428.7,474.9 219.8,254.3 440.4,45.4 219.8,254.3 -0.8,463.2 219.8,254.3 -91,381.7 219.8,254.3 
		530.6,126.9 219.8,254.3 92.4,-56.5 219.8,254.3 347.2,565.1 219.8,254.3 58.8,202.7 219.8,254.3 380.8,305.9 219.8,254.3 
		271.4,93.3 219.8,254.3 168.2,415.3 219.8,254.3 -336.1,-105.4 219.8,254.3 775.7,614 219.8,254.3 579.5,-301.6 219.8,254.3 
		-139.9,810.2 219.8,254.3 84.4,217.8 219.8,254.3 355.2,290.8 219.8,254.3 256.3,118.9 219.8,254.3 183.3,389.7 219.8,254.3 
		175.6,228.9 219.8,254.3 264,279.7 219.8,254.3 245.2,210.1 219.8,254.3 194.4,298.5 219.8,254.3 17.5,121.4 219.8,254.3 
		422.1,387.2 219.8,254.3 352.7,52 219.8,254.3 86.9,456.6 219.8,254.3 90.4,203.3 219.8,254.3 349.2,305.3 219.8,254.3 
		270.8,124.9 219.8,254.3 168.8,383.7 219.8,254.3 -120.8,186.2 219.8,254.3 560.4,322.4 219.8,254.3 287.9,-86.3 219.8,254.3 
		151.7,594.9 219.8,254.3 207.3,246.3 219.8,254.3 232.3,262.3 219.8,254.3 227.8,241.8 219.8,254.3 211.8,266.8 219.8,254.3 
		103.4,202.3 219.8,254.3 336.2,306.3 219.8,254.3 271.8,137.9 219.8,254.3 167.8,370.7 219.8,254.3 -16.6,397.9 219.8,254.3 
		456.2,110.7 219.8,254.3 76.2,17.9 219.8,254.3 363.4,490.7 219.8,254.3 -68.3,438.4 219.8,254.3 507.9,70.2 219.8,254.3 
		35.7,-33.8 219.8,254.3 403.9,542.4 219.8,254.3 132.8,270.6 219.8,254.3 306.8,238 219.8,254.3 203.5,167.3 219.8,254.3 
		236.1,341.3 219.8,254.3 72.9,214.6 219.8,254.3 366.7,294 219.8,254.3 259.5,107.4 219.8,254.3 180.1,401.2 	"/>
	
		<radialGradient id="SVGID_1_" cx="328.9471" cy="386.2611" r="23.5" gradientTransform="matrix(1 0 0 -1 0 792)" gradientUnits="userSpaceOnUse">
		<stop  offset="0.1" style="stop-color:#000000"/>
		<stop  offset="0.1953" style="stop-color:#19190F"/>
		<stop  offset="0.3482" style="stop-color:#3A3B24"/>
		<stop  offset="0.5044" style="stop-color:#545634"/>
		<stop  offset="0.6633" style="stop-color:#67693F"/>
		<stop  offset="0.8264" style="stop-color:#727446"/>
		<stop  offset="1" style="stop-color:#767848"/>
	</radialGradient>
	<circle fill="url(#SVGID_1_)" cx="328.9" cy="405.7" r="23.5"/>
	
		<radialGradient id="SVGID_2_" cx="260.247" cy="302.5611" r="53" gradientTransform="matrix(1 0 0 -1 0 792)" gradientUnits="userSpaceOnUse">
		<stop  offset="0.1" style="stop-color:#D17534"/>
		<stop  offset="0.1473" style="stop-color:#BA682E"/>
		<stop  offset="0.2621" style="stop-color:#894D22"/>
		<stop  offset="0.3798" style="stop-color:#5F3518"/>
		<stop  offset="0.4986" style="stop-color:#3D220F"/>
		<stop  offset="0.6189" style="stop-color:#221308"/>
		<stop  offset="0.7411" style="stop-color:#0F0804"/>
		<stop  offset="0.8665" style="stop-color:#040201"/>
		<stop  offset="1" style="stop-color:#000000"/>
	</radialGradient>
	<circle fill="url(#SVGID_2_)" cx="260.2" cy="489.4" r="53"/>
	
		<radialGradient id="SVGID_3_" cx="259.147" cy="309.1611" r="38.9" gradientTransform="matrix(1 0 0 -1 0 792)" gradientUnits="userSpaceOnUse">
		<stop  offset="0.1" style="stop-color:#4D5444"/>
		<stop  offset="0.2296" style="stop-color:#373D31"/>
		<stop  offset="0.4133" style="stop-color:#1F221C"/>
		<stop  offset="0.6014" style="stop-color:#0E0F0C"/>
		<stop  offset="0.7944" style="stop-color:#030403"/>
		<stop  offset="1" style="stop-color:#000000"/>
	</radialGradient>
	<circle fill="url(#SVGID_3_)" cx="259.1" cy="482.8" r="38.9"/>
	
		<radialGradient id="SVGID_4_" cx="205.9471" cy="618.8611" r="0" gradientTransform="matrix(1 0 0 -1 0 792)" gradientUnits="userSpaceOnUse">
		<stop  offset="0.1" style="stop-color:#000000"/>
		<stop  offset="0.1953" style="stop-color:#19190F"/>
		<stop  offset="0.3482" style="stop-color:#3A3B24"/>
		<stop  offset="0.5044" style="stop-color:#545634"/>
		<stop  offset="0.6633" style="stop-color:#67693F"/>
		<stop  offset="0.8264" style="stop-color:#727446"/>
		<stop  offset="1" style="stop-color:#767848"/>
	</radialGradient>
	<circle fill="url(#SVGID_4_)" cx="205.9" cy="173.1" r="0"/>
</g>
</svg>
