<?xml version="1.0" encoding="utf-8"?>
<!-- Generator: Adobe Illustrator 18.1.1, SVG Export Plug-In . SVG Version: 6.00 Build 0)  -->
<svg version="1.1" id="health" xmlns="http://www.w3.org/2000/svg" xmlns:xlink="http://www.w3.org/1999/xlink" x="0px" y="0px"
	 viewBox="0 0 612 792" enable-background="new 0 0 612 792" xml:space="preserve">
<g>
	<circle fill="#C93A27" cx="306" cy="396" r="306"/>
</g>
<path fill="#FFFFFF" d="M416,489H238c-6.6,0-12-5.4-12-12V318c0-6.6,5.4-12,12-12h178c6.6,0,12,5.4,12,12v159
	C428,483.6,422.6,489,416,489z"/>
<path fill="#FFFFFF" d="M455,539H198c-6.6,0-12-5.4-12-12V421c0-6.6,5.4-12,12-12h257c6.6,0,12,5.4,12,12v106
	C467,533.6,461.6,539,455,539z"/>
</svg>
